<?xml version="1.0"?>
<svg width="100" height="125" xmlns="http://www.w3.org/2000/svg" xmlns:svg="http://www.w3.org/2000/svg" version="1.1">
 <title>fade</title>
 <desc>Created with Sketch.</desc>
 <g class="layer">
  <title>Layer 1</title>
  <g fill="none" fill-rule="evenodd" id="svg_1" transform="rotate(-180 50 59)">
   <g fill="#000000" id="svg_2">
    <path d="m81.47,72.13c7.47,0 13.53,-6.08 13.53,-13.57c0,-7.49 -6.06,-13.56 -13.53,-13.56c-7.48,0 -13.54,6.07 -13.54,13.56c0,7.49 6.06,13.57 13.54,13.57zm-22.27,-10.3c1.32,0 2.39,-1.07 2.39,-2.39c0,-1.32 -1.07,-2.4 -2.39,-2.4c-1.32,0 -2.39,1.08 -2.39,2.4c0,1.32 1.07,2.39 2.39,2.39zm-11.14,-11.17c1.31,0 2.38,-1.07 2.38,-2.39c0,-1.32 -1.07,-2.4 -2.38,-2.4c-1.32,0 -2.39,1.08 -2.39,2.4c0,1.32 1.07,2.39 2.39,2.39zm7.96,3.19c1.32,0 2.38,-1.07 2.38,-2.39c0,-1.32 -1.06,-2.39 -2.38,-2.39c-1.32,0 -2.39,1.07 -2.39,2.39c0,1.32 1.07,2.39 2.39,2.39zm0,15.96c1.32,0 2.38,-1.07 2.38,-2.39c0,-1.33 -1.06,-2.4 -2.38,-2.4c-1.32,0 -2.39,1.07 -2.39,2.4c0,1.32 1.07,2.39 2.39,2.39zm-15.92,0c1.31,0 2.38,-1.07 2.38,-2.39c0,-1.33 -1.07,-2.4 -2.38,-2.4c-1.32,0 -2.39,1.07 -2.39,2.4c0,1.32 1.07,2.39 2.39,2.39zm3.18,-7.98c1.32,0 2.39,-1.07 2.39,-2.39c0,-1.32 -1.07,-2.4 -2.39,-2.4c-1.32,0 -2.39,1.08 -2.39,2.4c0,1.32 1.07,2.39 2.39,2.39zm-3.18,-7.98c1.31,0 2.38,-1.07 2.38,-2.39c0,-1.32 -1.07,-2.39 -2.38,-2.39c-1.32,0 -2.39,1.07 -2.39,2.39c0,1.32 1.07,2.39 2.39,2.39zm12.73,7.98c1.32,0 2.39,-1.07 2.39,-2.39c0,-1.32 -1.07,-2.4 -2.39,-2.4c-1.32,0 -2.39,1.08 -2.39,2.4c0,1.32 1.07,2.39 2.39,2.39zm-4.77,-4.79c1.31,0 2.38,-1.07 2.38,-2.39c0,-1.32 -1.07,-2.39 -2.38,-2.39c-1.32,0 -2.39,1.07 -2.39,2.39c0,1.32 1.07,2.39 2.39,2.39zm0,9.58c1.31,0 2.38,-1.07 2.38,-2.4c0,-1.32 -1.07,-2.39 -2.38,-2.39c-1.32,0 -2.39,1.07 -2.39,2.39c0,1.33 1.07,2.4 2.39,2.4zm0,6.38c1.31,0 2.38,-1.07 2.38,-2.39c0,-1.33 -1.07,-2.4 -2.38,-2.4c-1.32,0 -2.39,1.07 -2.39,2.4c0,1.32 1.07,2.39 2.39,2.39zm-11.15,-11.17c1.32,0 2.39,-1.07 2.39,-2.39c0,-1.32 -1.07,-2.4 -2.39,-2.4c-1.32,0 -2.39,1.08 -2.39,2.4c0,1.32 1.07,2.39 2.39,2.39zm-8.94,-0.8c0.87,0 1.58,-0.7 1.58,-1.56c0,-0.87 -0.71,-1.56 -1.58,-1.56c-0.88,0 -1.59,0.69 -1.59,1.56c0,0.86 0.71,1.56 1.59,1.56zm-10.56,-10.9c0.87,0 1.58,-0.7 1.58,-1.56c0,-0.87 -0.71,-1.57 -1.58,-1.57c-0.87,0 -1.58,0.7 -1.58,1.57c0,0.86 0.71,1.56 1.58,1.56zm7.39,3.64c0.87,0 1.58,-0.7 1.58,-1.56c0,-0.86 -0.71,-1.56 -1.58,-1.56c-0.87,0 -1.58,0.7 -1.58,1.56c0,0.86 0.71,1.56 1.58,1.56zm0,14.05c0.87,0 1.58,-0.7 1.58,-1.56c0,-0.87 -0.71,-1.56 -1.58,-1.56c-0.87,0 -1.58,0.69 -1.58,1.56c0,0.86 0.71,1.56 1.58,1.56zm-14.83,0c0.88,0 1.59,-0.7 1.59,-1.56c0,-0.87 -0.71,-1.56 -1.59,-1.56c-0.87,0 -1.58,0.69 -1.58,1.56c0,0.86 0.71,1.56 1.58,1.56zm3.25,-6.79c0.87,0 1.58,-0.7 1.58,-1.56c0,-0.87 -0.71,-1.56 -1.58,-1.56c-0.88,0 -1.58,0.69 -1.58,1.56c0,0.86 0.7,1.56 1.58,1.56zm-2.81,-7.26c0.88,0 1.59,-0.7 1.59,-1.56c0,-0.86 -0.71,-1.56 -1.59,-1.56c-0.87,0 -1.58,0.7 -1.58,1.56c0,0.86 0.71,1.56 1.58,1.56zm11.22,7.26c0.88,0 1.59,-0.7 1.59,-1.56c0,-0.87 -0.71,-1.56 -1.59,-1.56c-0.87,0 -1.58,0.69 -1.58,1.56c0,0.86 0.71,1.56 1.58,1.56zm-4.22,-4.77c0.87,0 1.58,-0.7 1.58,-1.56c0,-0.86 -0.71,-1.56 -1.58,-1.56c-0.87,0 -1.58,0.7 -1.58,1.56c0,0.86 0.71,1.56 1.58,1.56zm0,9.04c0.87,0 1.58,-0.7 1.58,-1.56c0,-0.86 -0.71,-1.56 -1.58,-1.56c-0.87,0 -1.58,0.7 -1.58,1.56c0,0.86 0.71,1.56 1.58,1.56zm0,6.83c0.87,0 1.58,-0.7 1.58,-1.57c0,-0.86 -0.71,-1.56 -1.58,-1.56c-0.87,0 -1.58,0.7 -1.58,1.56c0,0.87 0.71,1.57 1.58,1.57zm-10.83,-11.1c0.88,0 1.59,-0.7 1.59,-1.56c0,-0.87 -0.71,-1.56 -1.59,-1.56c-0.87,0 -1.58,0.69 -1.58,1.56c0,0.86 0.71,1.56 1.58,1.56z" fill="#2963ca" id="svg_3"/>
   </g>
  </g>
 </g>
</svg>