<?xml version="1.0"?>
<svg width="512" height="512" xmlns="http://www.w3.org/2000/svg" xmlns:svg="http://www.w3.org/2000/svg" version="1.1">
 <g class="layer">
  <title>Layer 1</title>
  <path d="m310,156c2.63,1.55 2.63,1.55 5.13,3.75c0.93,0.82 1.87,1.63 2.83,2.48c1.02,0.92 2.03,1.84 3.04,2.77c0.81,0.74 0.81,0.74 1.64,1.49c2.8,2.56 5.59,5.13 8.36,7.72c2.96,2.76 5.98,5.44 9.04,8.08c2.35,2.05 4.65,4.13 6.96,6.21c2.98,2.69 5.97,5.36 9,8c5.59,4.87 11.08,9.86 16.58,14.83c6.6,5.97 6.6,5.97 13.29,11.83c1.62,1.4 3.23,2.83 4.83,4.27c0.94,0.83 1.89,1.66 2.86,2.51c1.3,1.16 1.3,1.16 2.63,2.34c3.58,2.19 5.68,2.29 9.81,1.72c2.27,-1.39 2.27,-1.39 4,-3.5c0.67,-0.74 1.35,-1.47 2.04,-2.23c0.97,-1.12 0.97,-1.12 1.96,-2.27c0.56,-0.64 1.13,-1.27 1.71,-1.93c1.13,-1.28 2.26,-2.57 3.38,-3.87c2.26,-2.6 4.58,-5.15 6.91,-7.7c3.45,-3.79 6.86,-7.6 10.22,-11.47c2.07,-2.36 4.18,-4.7 6.28,-7.03c3.26,-3.61 6.48,-7.26 9.68,-10.93c2.89,-3.28 5.83,-6.52 8.77,-9.75c1.62,-1.83 3.05,-3.66 4.49,-5.63c5.64,-5.92 12.76,-8.44 20.83,-8.82c8.03,0.38 15.14,3.3 20.73,9.13c5.05,6.56 5.78,13.25 5.48,21.38c-1.07,8.06 -4.8,13.5 -10.67,18.92c-1.86,1.75 -3.52,3.58 -5.18,5.51c-2.68,3.1 -5.39,6.15 -8.13,9.19c-2.69,2.98 -5.36,5.97 -8,9c-3.39,3.9 -6.85,7.73 -10.32,11.57c-1.89,2.11 -3.76,4.23 -5.62,6.37c-3.65,4.19 -7.4,8.29 -11.15,12.4c-2.58,2.85 -5.11,5.73 -7.63,8.63c-2.83,3.23 -5.71,6.4 -8.6,9.58c-1.35,1.52 -2.68,3.07 -3.96,4.65c-5.69,7.03 -13.17,12.29 -22.22,13.8c-11.77,0.92 -20.58,-0.76 -29.87,-8.17c-3.56,-3.06 -7.02,-6.21 -10.47,-9.38c-2.21,-2.04 -4.45,-4.04 -6.72,-6.01c-3.01,-2.62 -5.98,-5.27 -8.94,-7.94c-2.98,-2.69 -5.97,-5.36 -9,-8c-2.98,-2.6 -5.94,-5.23 -8.87,-7.87c-0.85,-0.76 -1.69,-1.52 -2.55,-2.3c-1.73,-1.56 -3.44,-3.12 -5.16,-4.69c-2.45,-2.24 -4.92,-4.45 -7.42,-6.64c-0.71,-0.63 -1.43,-1.25 -2.16,-1.9c-3.14,-2.57 -5.36,-3.98 -9.34,-4.97c-5.35,1.33 -7.97,4.79 -11.5,8.87c-0.58,0.65 -1.15,1.29 -1.75,1.96c-1.14,1.3 -2.28,2.6 -3.4,3.91c-2.09,2.4 -4.22,4.77 -6.35,7.13c-2.69,2.98 -5.36,5.97 -8,9c-4.87,5.59 -9.86,11.08 -14.83,16.58c-3.99,4.42 -7.95,8.87 -11.86,13.36c-2.84,3.23 -5.74,6.42 -8.62,9.62c-1.92,2.13 -3.81,4.28 -5.69,6.44c-3.39,3.9 -6.85,7.73 -10.31,11.56c-1.92,2.13 -3.81,4.28 -5.69,6.44c-4.87,5.59 -9.86,11.08 -14.83,16.58c-3.99,4.42 -7.95,8.87 -11.86,13.36c-2.84,3.23 -5.74,6.42 -8.62,9.62c-1.92,2.13 -3.81,4.28 -5.69,6.44c-3.39,3.9 -6.85,7.73 -10.31,11.56c-1.92,2.13 -3.81,4.28 -5.69,6.44c-3.39,3.9 -6.85,7.73 -10.32,11.57c-1.89,2.11 -3.76,4.23 -5.62,6.37c-3.65,4.19 -7.4,8.29 -11.15,12.4c-2.58,2.85 -5.11,5.73 -7.63,8.63c-2.07,2.36 -4.18,4.7 -6.28,7.03c-2.69,2.98 -5.36,5.97 -8,9c-3.39,3.9 -6.85,7.73 -10.31,11.56c-1.92,2.13 -3.81,4.28 -5.69,6.44c-3.39,3.9 -6.85,7.73 -10.32,11.57c-1.89,2.11 -3.76,4.23 -5.62,6.37c-3.69,4.24 -7.48,8.37 -11.28,12.51c-1.73,1.93 -3.3,3.85 -4.84,5.93c-4.62,4.96 -10.68,8.04 -17.41,8.86c-7.52,0.27 -14.51,-1.34 -20.4,-6.19c-5.95,-6.25 -8.63,-12.41 -9.07,-20.99c0.56,-12.53 8.38,-20.3 16.44,-29.06c0.8,-0.87 0.8,-0.87 1.62,-1.77c2.55,-2.79 5.12,-5.57 7.7,-8.34c2.7,-2.91 5.31,-5.87 7.91,-8.87c2.22,-2.54 4.5,-5.03 6.77,-7.52c3.45,-3.79 6.86,-7.6 10.22,-11.47c2.07,-2.36 4.18,-4.7 6.28,-7.03c2.69,-2.98 5.36,-5.97 8,-9c3.39,-3.9 6.85,-7.73 10.31,-11.56c1.92,-2.13 3.81,-4.28 5.69,-6.44c3.39,-3.9 6.85,-7.73 10.32,-11.57c1.89,-2.11 3.76,-4.23 5.62,-6.37c3.65,-4.19 7.4,-8.29 11.15,-12.4c2.58,-2.85 5.11,-5.73 7.63,-8.63c2.07,-2.36 4.18,-4.7 6.28,-7.03c2.69,-2.98 5.36,-5.97 8,-9c3.39,-3.9 6.85,-7.73 10.31,-11.56c1.92,-2.13 3.81,-4.28 5.69,-6.44c4.87,-5.59 9.86,-11.08 14.83,-16.58c3.99,-4.42 7.95,-8.87 11.86,-13.36c2.84,-3.23 5.74,-6.42 8.62,-9.62c1.92,-2.13 3.81,-4.28 5.69,-6.44c3.39,-3.9 6.85,-7.73 10.31,-11.56c1.92,-2.13 3.81,-4.28 5.69,-6.44c4.87,-5.59 9.86,-11.08 14.83,-16.58c3.99,-4.42 7.95,-8.87 11.86,-13.36c2.84,-3.23 5.74,-6.42 8.62,-9.62c1.92,-2.13 3.81,-4.28 5.69,-6.44c3.39,-3.9 6.85,-7.73 10.32,-11.57c1.89,-2.11 3.76,-4.23 5.62,-6.37c3.66,-4.2 7.43,-8.31 11.19,-12.43c2,-2.22 3.95,-4.47 5.87,-6.75c3.72,-4.28 5.89,-4.33 11.5,-3.88z" fill="#2963ca" id="svg_1" transform="matrix(1 0 0 1 0 0)"/>
  <path d="m422.65,15.81c15.18,11.6 25.57,27.3 28.69,46.28c2.43,18.53 -1.1,37.33 -12.42,52.47c-0.63,0.81 -1.27,1.61 -1.92,2.44c-0.65,0.83 -1.29,1.67 -1.96,2.52c-10.41,12.54 -26,20.88 -42.04,23.48c-19.82,1.72 -38.29,-1.46 -54.31,-13.94c-1.58,-1.34 -3.15,-2.69 -4.69,-4.06c-0.64,-0.56 -1.28,-1.11 -1.93,-1.68c-12.16,-11.3 -19.43,-28.4 -20.39,-44.81c-0.74,-20.84 5.42,-38.17 19.38,-53.82c23.71,-25.07 63.36,-28.17 91.59,-8.88z" fill="#2963ca" id="svg_2" transform="matrix(1 0 0 1 0 0)"/>
  <path d="m308.66,296.18c1.65,1.45 3.22,2.96 4.78,4.51c1.14,1.09 2.28,2.19 3.42,3.28c0.54,0.53 1.09,1.05 1.64,1.59c1.85,1.77 3.75,3.46 5.69,5.13c2.97,2.57 5.9,5.18 8.81,7.81c2.98,2.69 5.97,5.36 9,8c3.9,3.4 7.73,6.86 11.57,10.32c2.11,1.89 4.23,3.76 6.37,5.62c3.23,2.81 6.4,5.68 9.56,8.56c3.27,2.98 6.55,5.95 9.88,8.88c0.63,0.55 1.27,1.11 1.92,1.69c1.8,1.56 1.8,1.56 4.33,3.24c7.33,6.76 10.75,16.22 11.4,25.93c-0.12,15.4 -9.1,24.6 -19.03,35.26c-1.19,1.35 -2.38,2.7 -3.56,4.06c-4.85,5.58 -9.82,11.04 -14.77,16.52c-3.98,4.42 -7.94,8.87 -11.86,13.36c-2.84,3.24 -5.74,6.43 -8.62,9.63c-1.9,2.11 -3.77,4.23 -5.63,6.37c-3.64,4.19 -7.39,8.29 -11.14,12.39c-2.08,2.29 -4.1,4.63 -6.11,6.98c-6.27,7.15 -11.89,11.64 -21.53,13.01c-7.56,0.41 -13.83,-2.43 -20.09,-6.44c-5.77,-6.18 -8,-11.9 -8.31,-20.38c0.55,-13.09 7.56,-20.1 16.23,-29.05c1.76,-1.83 3.43,-3.72 5.08,-5.64c2.57,-2.97 5.18,-5.89 7.81,-8.81c2.69,-2.98 5.37,-5.97 8,-9c2.64,-3.03 5.31,-6.02 8,-9c3.28,-3.63 6.53,-7.29 9.73,-10.99c1.29,-1.46 2.61,-2.89 3.95,-4.29c4.26,-4.5 4.26,-4.5 7.01,-9.97c-0.4,-5.91 -4.66,-9.4 -8.88,-13.12c-0.53,-0.49 -1.07,-0.97 -1.62,-1.47c-1.56,-1.39 -3.12,-2.78 -4.69,-4.16c-0.73,-0.64 -1.46,-1.29 -2.21,-1.95c-1.26,-1.11 -2.53,-2.21 -3.8,-3.31c-2.35,-2.05 -4.67,-4.14 -6.99,-6.24c-2.98,-2.69 -5.97,-5.36 -9,-8c-3.89,-3.38 -7.71,-6.84 -11.54,-10.29c-2.26,-2.03 -4.54,-4.03 -6.83,-6.02c-0.64,-0.57 -1.28,-1.13 -1.93,-1.71c-1.36,-1.19 -2.77,-2.31 -4.2,-3.42c-1.89,-2.59 -2.19,-4.76 -1.99,-7.94c1.86,-8.04 10.85,-14.92 16.36,-20.76c2.48,-2.63 4.83,-5.33 7.13,-8.11c4.95,-5.65 10.09,-6.74 16.66,-2.07z" fill="#2963ca" id="svg_3"/>
  <path d="m191,50c7.55,5.39 14.23,11.9 21,18.21c2.96,2.76 5.98,5.44 9.04,8.08c2.35,2.05 4.65,4.13 6.96,6.21c2.96,2.67 5.93,5.32 8.94,7.94c4.19,3.65 8.29,7.4 12.4,11.15c2.84,2.58 5.72,5.11 8.62,7.62c3.25,2.85 6.45,5.77 9.65,8.68c1.66,1.47 3.37,2.89 5.1,4.27c2.44,1.96 3.46,2.84 4.29,5.84c-0.09,7.37 -2.46,10.46 -7.62,15.5c-1.29,1.31 -2.57,2.62 -3.85,3.93c-0.92,0.93 -0.92,0.93 -1.86,1.87c-2.01,2.04 -3.92,4.16 -5.79,6.33c-0.78,0.88 -0.78,0.88 -1.57,1.79c-1.2,1.44 -2.32,2.95 -3.43,4.46c-2.22,2.5 -3.63,3.35 -6.88,4.12c-6.37,0.14 -9.67,-3.89 -14,-8c-1.66,-1.5 -3.33,-3 -5,-4.5c-0.85,-0.76 -1.69,-1.53 -2.57,-2.32c-2.11,-1.89 -4.23,-3.76 -6.37,-5.62c-4.19,-3.65 -8.29,-7.4 -12.4,-11.15c-2.84,-2.58 -5.73,-5.11 -8.62,-7.62c-2.41,-2.12 -4.79,-4.27 -7.17,-6.41c-0.84,-0.76 -1.68,-1.52 -2.55,-2.29c-1.37,-1.24 -2.73,-2.48 -4.08,-3.74c-3.29,-2.98 -5.77,-4.25 -10.24,-4.35c-3.18,1.25 -4.96,2.82 -7.13,5.44c-2.89,3.42 -5.85,6.76 -8.87,10.06c-3.45,3.79 -6.86,7.6 -10.22,11.47c-2.07,2.36 -4.18,4.7 -6.28,7.03c-2.69,2.98 -5.36,5.97 -8,9c-3.39,3.89 -6.85,7.72 -10.31,11.55c-1.95,2.19 -3.86,4.4 -5.75,6.64c-6.07,6.92 -12.18,13.21 -21.67,14.12c-8.74,0.3 -15.48,-0.32 -22.02,-6.4c-6.86,-7.36 -8.44,-13.11 -8.1,-23.14c1.06,-11.36 9.29,-18.43 16.86,-26.22c1.81,-1.88 3.54,-3.82 5.24,-5.8c2.55,-2.95 5.14,-5.86 7.75,-8.75c2.69,-2.98 5.36,-5.97 8,-9c3.39,-3.9 6.85,-7.73 10.32,-11.57c1.89,-2.11 3.76,-4.23 5.62,-6.37c3.65,-4.19 7.4,-8.29 11.15,-12.4c2.01,-2.22 4,-4.46 5.97,-6.72c0.55,-0.63 1.1,-1.26 1.67,-1.9c1.31,-1.51 2.62,-3.03 3.92,-4.54c12.54,-14.36 31.67,-23.85 49.85,-12.5z" fill="#2963ca" id="svg_4" transform="matrix(1 0 0 1 0 0)"/>
  <path d="m14.89,219.85c0.69,0 1.37,-0.01 2.08,-0.01c2.26,-0.01 4.51,-0.01 6.77,-0.01c1.58,-0.01 3.15,-0.01 4.73,-0.01c3.29,-0.01 6.59,-0.01 9.89,-0.01c4.22,0 8.44,-0.01 12.66,-0.03c3.25,-0.01 6.5,-0.01 9.75,-0.01c1.56,0 3.12,-0.01 4.67,-0.02c2.18,-0.01 4.36,0 6.54,0c1.23,0 2.47,0 3.75,0c4.09,0.31 7,1.11 10.08,3.87c1.69,3.38 2.37,6.78 1.19,10.38c-3.29,3.3 -4.91,4.8 -9.54,5.62c-1.3,-0.01 -2.61,-0.01 -3.95,-0.01c-0.72,0.01 -1.45,0.01 -2.19,0.02c-2.38,0.01 -4.76,-0.02 -7.14,-0.04c-1.66,0 -3.32,0 -4.98,0c-3.48,0 -6.95,-0.02 -10.42,-0.05c-4.45,-0.04 -8.9,-0.05 -13.35,-0.04c-3.42,0 -6.85,-0.01 -10.28,-0.03c-1.64,0 -3.28,-0.01 -4.92,0c-2.29,-0.01 -4.58,-0.03 -6.88,-0.05c-1.3,-0.01 -2.6,-0.02 -3.94,-0.03c-3.63,-0.42 -5.53,-1.2 -8.41,-3.39c-1.73,-3.46 -1.49,-7.23 -1,-11c3.84,-5.49 8.63,-5.13 14.89,-5.15z" fill="#2963ca" id="svg_5" transform="matrix(1 0 0 1 0 0)"/>
  <path d="m48.17,254.73c1.07,-0.01 1.07,-0.01 2.16,-0.02c2.36,-0.01 4.72,-0.01 7.07,-0.01c1.65,0 3.29,0 4.93,-0.01c3.44,-0.01 6.88,-0.01 10.32,0c4.4,0 8.8,-0.01 13.2,-0.04c3.39,-0.01 6.78,-0.01 10.17,-0.01c1.63,0 3.25,0 4.87,-0.01c2.27,-0.02 4.54,-0.01 6.82,0c1.29,0 2.58,0 3.91,0c3.64,0.4 5.49,1.16 8.38,3.37c2.16,3.24 2.26,3.84 1.88,7.5c-0.07,0.78 -0.13,1.55 -0.2,2.35c-0.93,2.97 -1.98,3.61 -4.68,5.15c-2.6,0.3 -4.95,0.43 -7.55,0.41c-1.13,0.01 -1.13,0.01 -2.29,0.02c-2.49,0.02 -4.98,0.01 -7.47,0.01c-1.73,0 -3.47,0.01 -5.2,0.01c-3.63,0.01 -7.26,0.01 -10.89,0c-4.66,-0.01 -9.31,0.01 -13.97,0.04c-3.58,0.02 -7.15,0.02 -10.73,0.01c-1.72,0 -3.44,0.01 -5.15,0.02c-2.4,0.01 -4.8,0 -7.2,-0.01c-0.71,0.01 -1.41,0.02 -2.14,0.03c-3.34,-0.05 -5.12,-0.32 -7.82,-2.35c-2.24,-3.08 -2.52,-5.4 -2.59,-9.19c1.19,-2.81 2.13,-4.41 4.67,-6.11c3.23,-1.22 6.05,-1.15 9.5,-1.16z" fill="#2963ca" id="svg_6" transform="matrix(1 0 0 1 0 0)"/>
 </g>
</svg>